<mxfile host="app.diagrams.net" agent="Mozilla/5.0 (X11; Linux x86_64) AppleWebKit/537.36 (KHTML, like Gecko) Chrome/138.0.0.0 Safari/537.36" version="28.0.4">
  <diagram name="Page-1" id="jzt0bMING7v2syZqBpMn">
    <mxGraphModel dx="825" dy="477" grid="1" gridSize="10" guides="1" tooltips="1" connect="1" arrows="1" fold="1" page="1" pageScale="1" pageWidth="827" pageHeight="1169" math="0" shadow="0">
      <root>
        <mxCell id="0" />
        <mxCell id="1" parent="0" />
        <mxCell id="P6FHyjP6E23nU8N7vGcj-11" value="" style="group" vertex="1" connectable="0" parent="1">
          <mxGeometry x="80" y="40" width="440" height="40" as="geometry" />
        </mxCell>
        <mxCell id="P6FHyjP6E23nU8N7vGcj-1" value="0" style="rounded=0;whiteSpace=wrap;html=1;" vertex="1" parent="P6FHyjP6E23nU8N7vGcj-11">
          <mxGeometry width="40" height="40" as="geometry" />
        </mxCell>
        <mxCell id="P6FHyjP6E23nU8N7vGcj-2" value="1" style="rounded=0;whiteSpace=wrap;html=1;" vertex="1" parent="P6FHyjP6E23nU8N7vGcj-11">
          <mxGeometry x="40" width="40" height="40" as="geometry" />
        </mxCell>
        <mxCell id="P6FHyjP6E23nU8N7vGcj-3" value="2" style="rounded=0;whiteSpace=wrap;html=1;" vertex="1" parent="P6FHyjP6E23nU8N7vGcj-11">
          <mxGeometry x="80" width="40" height="40" as="geometry" />
        </mxCell>
        <mxCell id="P6FHyjP6E23nU8N7vGcj-4" value="3" style="rounded=0;whiteSpace=wrap;html=1;" vertex="1" parent="P6FHyjP6E23nU8N7vGcj-11">
          <mxGeometry x="120" width="40" height="40" as="geometry" />
        </mxCell>
        <mxCell id="P6FHyjP6E23nU8N7vGcj-5" value="27" style="rounded=0;whiteSpace=wrap;html=1;" vertex="1" parent="P6FHyjP6E23nU8N7vGcj-11">
          <mxGeometry x="240" width="40" height="40" as="geometry" />
        </mxCell>
        <mxCell id="P6FHyjP6E23nU8N7vGcj-6" value="28" style="rounded=0;whiteSpace=wrap;html=1;" vertex="1" parent="P6FHyjP6E23nU8N7vGcj-11">
          <mxGeometry x="280" width="40" height="40" as="geometry" />
        </mxCell>
        <mxCell id="P6FHyjP6E23nU8N7vGcj-7" value="&lt;div&gt;29&lt;/div&gt;" style="rounded=0;whiteSpace=wrap;html=1;" vertex="1" parent="P6FHyjP6E23nU8N7vGcj-11">
          <mxGeometry x="320" width="40" height="40" as="geometry" />
        </mxCell>
        <mxCell id="P6FHyjP6E23nU8N7vGcj-8" value="30" style="rounded=0;whiteSpace=wrap;html=1;" vertex="1" parent="P6FHyjP6E23nU8N7vGcj-11">
          <mxGeometry x="360" width="40" height="40" as="geometry" />
        </mxCell>
        <mxCell id="P6FHyjP6E23nU8N7vGcj-9" value="31" style="rounded=0;whiteSpace=wrap;html=1;" vertex="1" parent="P6FHyjP6E23nU8N7vGcj-11">
          <mxGeometry x="400" width="40" height="40" as="geometry" />
        </mxCell>
        <mxCell id="P6FHyjP6E23nU8N7vGcj-10" value="..." style="text;html=1;align=center;verticalAlign=middle;whiteSpace=wrap;rounded=0;" vertex="1" parent="P6FHyjP6E23nU8N7vGcj-11">
          <mxGeometry x="170" y="10" width="60" height="20" as="geometry" />
        </mxCell>
        <mxCell id="P6FHyjP6E23nU8N7vGcj-12" value="0" style="rounded=0;whiteSpace=wrap;html=1;" vertex="1" parent="1">
          <mxGeometry x="80" y="120" width="40" height="40" as="geometry" />
        </mxCell>
        <mxCell id="P6FHyjP6E23nU8N7vGcj-13" value="1" style="rounded=0;whiteSpace=wrap;html=1;" vertex="1" parent="1">
          <mxGeometry x="120" y="120" width="40" height="40" as="geometry" />
        </mxCell>
        <mxCell id="P6FHyjP6E23nU8N7vGcj-14" value="2" style="rounded=0;whiteSpace=wrap;html=1;" vertex="1" parent="1">
          <mxGeometry x="160" y="120" width="40" height="40" as="geometry" />
        </mxCell>
        <mxCell id="P6FHyjP6E23nU8N7vGcj-15" value="3" style="rounded=0;whiteSpace=wrap;html=1;" vertex="1" parent="1">
          <mxGeometry x="200" y="120" width="40" height="40" as="geometry" />
        </mxCell>
        <mxCell id="P6FHyjP6E23nU8N7vGcj-16" value="27" style="rounded=0;whiteSpace=wrap;html=1;" vertex="1" parent="1">
          <mxGeometry x="320" y="120" width="40" height="40" as="geometry" />
        </mxCell>
        <mxCell id="P6FHyjP6E23nU8N7vGcj-17" value="28" style="rounded=0;whiteSpace=wrap;html=1;" vertex="1" parent="1">
          <mxGeometry x="360" y="120" width="40" height="40" as="geometry" />
        </mxCell>
        <mxCell id="P6FHyjP6E23nU8N7vGcj-18" value="29" style="rounded=0;whiteSpace=wrap;html=1;" vertex="1" parent="1">
          <mxGeometry x="400" y="120" width="40" height="40" as="geometry" />
        </mxCell>
        <mxCell id="P6FHyjP6E23nU8N7vGcj-19" value="30" style="rounded=0;whiteSpace=wrap;html=1;" vertex="1" parent="1">
          <mxGeometry x="440" y="120" width="40" height="40" as="geometry" />
        </mxCell>
        <mxCell id="P6FHyjP6E23nU8N7vGcj-20" value="31" style="rounded=0;whiteSpace=wrap;html=1;" vertex="1" parent="1">
          <mxGeometry x="480" y="120" width="40" height="40" as="geometry" />
        </mxCell>
        <mxCell id="P6FHyjP6E23nU8N7vGcj-21" value="0" style="rounded=0;whiteSpace=wrap;html=1;fillColor=#f8cecc;strokeColor=#b85450;" vertex="1" parent="1">
          <mxGeometry x="520" y="120" width="40" height="40" as="geometry" />
        </mxCell>
        <mxCell id="P6FHyjP6E23nU8N7vGcj-22" value="..." style="text;html=1;align=center;verticalAlign=middle;whiteSpace=wrap;rounded=0;" vertex="1" parent="1">
          <mxGeometry x="250" y="130" width="60" height="20" as="geometry" />
        </mxCell>
        <mxCell id="P6FHyjP6E23nU8N7vGcj-25" value="1" style="rounded=0;whiteSpace=wrap;html=1;" vertex="1" parent="1">
          <mxGeometry x="80" y="160" width="40" height="40" as="geometry" />
        </mxCell>
        <mxCell id="P6FHyjP6E23nU8N7vGcj-26" value="2" style="rounded=0;whiteSpace=wrap;html=1;" vertex="1" parent="1">
          <mxGeometry x="120" y="160" width="40" height="40" as="geometry" />
        </mxCell>
        <mxCell id="P6FHyjP6E23nU8N7vGcj-27" value="3" style="rounded=0;whiteSpace=wrap;html=1;" vertex="1" parent="1">
          <mxGeometry x="160" y="160" width="40" height="40" as="geometry" />
        </mxCell>
        <mxCell id="P6FHyjP6E23nU8N7vGcj-28" value="4" style="rounded=0;whiteSpace=wrap;html=1;" vertex="1" parent="1">
          <mxGeometry x="200" y="160" width="40" height="40" as="geometry" />
        </mxCell>
        <mxCell id="P6FHyjP6E23nU8N7vGcj-29" value="28" style="rounded=0;whiteSpace=wrap;html=1;" vertex="1" parent="1">
          <mxGeometry x="320" y="160" width="40" height="40" as="geometry" />
        </mxCell>
        <mxCell id="P6FHyjP6E23nU8N7vGcj-30" value="29" style="rounded=0;whiteSpace=wrap;html=1;" vertex="1" parent="1">
          <mxGeometry x="360" y="160" width="40" height="40" as="geometry" />
        </mxCell>
        <mxCell id="P6FHyjP6E23nU8N7vGcj-31" value="30" style="rounded=0;whiteSpace=wrap;html=1;" vertex="1" parent="1">
          <mxGeometry x="400" y="160" width="40" height="40" as="geometry" />
        </mxCell>
        <mxCell id="P6FHyjP6E23nU8N7vGcj-32" value="31" style="rounded=0;whiteSpace=wrap;html=1;" vertex="1" parent="1">
          <mxGeometry x="440" y="160" width="40" height="40" as="geometry" />
        </mxCell>
        <mxCell id="P6FHyjP6E23nU8N7vGcj-33" value="0" style="rounded=0;whiteSpace=wrap;html=1;" vertex="1" parent="1">
          <mxGeometry x="480" y="160" width="40" height="40" as="geometry" />
        </mxCell>
        <mxCell id="P6FHyjP6E23nU8N7vGcj-34" value="1" style="rounded=0;whiteSpace=wrap;html=1;fillColor=#f8cecc;strokeColor=#b85450;" vertex="1" parent="1">
          <mxGeometry x="520" y="160" width="40" height="40" as="geometry" />
        </mxCell>
        <mxCell id="P6FHyjP6E23nU8N7vGcj-35" value="..." style="text;html=1;align=center;verticalAlign=middle;whiteSpace=wrap;rounded=0;" vertex="1" parent="1">
          <mxGeometry x="250" y="170" width="60" height="20" as="geometry" />
        </mxCell>
        <mxCell id="P6FHyjP6E23nU8N7vGcj-36" value="2" style="rounded=0;whiteSpace=wrap;html=1;" vertex="1" parent="1">
          <mxGeometry x="80" y="200" width="40" height="40" as="geometry" />
        </mxCell>
        <mxCell id="P6FHyjP6E23nU8N7vGcj-37" value="3" style="rounded=0;whiteSpace=wrap;html=1;" vertex="1" parent="1">
          <mxGeometry x="120" y="200" width="40" height="40" as="geometry" />
        </mxCell>
        <mxCell id="P6FHyjP6E23nU8N7vGcj-38" value="4" style="rounded=0;whiteSpace=wrap;html=1;" vertex="1" parent="1">
          <mxGeometry x="160" y="200" width="40" height="40" as="geometry" />
        </mxCell>
        <mxCell id="P6FHyjP6E23nU8N7vGcj-39" value="5" style="rounded=0;whiteSpace=wrap;html=1;" vertex="1" parent="1">
          <mxGeometry x="200" y="200" width="40" height="40" as="geometry" />
        </mxCell>
        <mxCell id="P6FHyjP6E23nU8N7vGcj-40" value="29" style="rounded=0;whiteSpace=wrap;html=1;" vertex="1" parent="1">
          <mxGeometry x="320" y="200" width="40" height="40" as="geometry" />
        </mxCell>
        <mxCell id="P6FHyjP6E23nU8N7vGcj-41" value="30" style="rounded=0;whiteSpace=wrap;html=1;" vertex="1" parent="1">
          <mxGeometry x="360" y="200" width="40" height="40" as="geometry" />
        </mxCell>
        <mxCell id="P6FHyjP6E23nU8N7vGcj-42" value="31" style="rounded=0;whiteSpace=wrap;html=1;" vertex="1" parent="1">
          <mxGeometry x="400" y="200" width="40" height="40" as="geometry" />
        </mxCell>
        <mxCell id="P6FHyjP6E23nU8N7vGcj-43" value="0" style="rounded=0;whiteSpace=wrap;html=1;" vertex="1" parent="1">
          <mxGeometry x="440" y="200" width="40" height="40" as="geometry" />
        </mxCell>
        <mxCell id="P6FHyjP6E23nU8N7vGcj-44" value="1" style="rounded=0;whiteSpace=wrap;html=1;" vertex="1" parent="1">
          <mxGeometry x="480" y="200" width="40" height="40" as="geometry" />
        </mxCell>
        <mxCell id="P6FHyjP6E23nU8N7vGcj-45" value="2" style="rounded=0;whiteSpace=wrap;html=1;fillColor=#f8cecc;strokeColor=#b85450;" vertex="1" parent="1">
          <mxGeometry x="520" y="200" width="40" height="40" as="geometry" />
        </mxCell>
        <mxCell id="P6FHyjP6E23nU8N7vGcj-46" value="..." style="text;html=1;align=center;verticalAlign=middle;whiteSpace=wrap;rounded=0;" vertex="1" parent="1">
          <mxGeometry x="250" y="210" width="60" height="20" as="geometry" />
        </mxCell>
        <mxCell id="P6FHyjP6E23nU8N7vGcj-47" value="..." style="text;html=1;align=center;verticalAlign=middle;whiteSpace=wrap;rounded=0;" vertex="1" parent="1">
          <mxGeometry x="80" y="260" width="60" height="20" as="geometry" />
        </mxCell>
        <mxCell id="P6FHyjP6E23nU8N7vGcj-48" value="" style="endArrow=classic;startArrow=classic;html=1;rounded=0;" edge="1" parent="1">
          <mxGeometry width="100" height="100" relative="1" as="geometry">
            <mxPoint x="60" y="320" as="sourcePoint" />
            <mxPoint x="60" y="120" as="targetPoint" />
          </mxGeometry>
        </mxCell>
        <mxCell id="P6FHyjP6E23nU8N7vGcj-49" value="" style="endArrow=classic;startArrow=classic;html=1;rounded=0;" edge="1" parent="1">
          <mxGeometry width="100" height="100" relative="1" as="geometry">
            <mxPoint x="80" y="320" as="sourcePoint" />
            <mxPoint x="520" y="320" as="targetPoint" />
          </mxGeometry>
        </mxCell>
        <mxCell id="P6FHyjP6E23nU8N7vGcj-50" value="32&lt;div&gt;rows&lt;/div&gt;" style="text;html=1;align=center;verticalAlign=middle;whiteSpace=wrap;rounded=0;" vertex="1" parent="1">
          <mxGeometry x="10" y="210" width="60" height="40" as="geometry" />
        </mxCell>
        <mxCell id="P6FHyjP6E23nU8N7vGcj-51" value="32&lt;div&gt;columns&lt;/div&gt;" style="text;html=1;align=center;verticalAlign=middle;whiteSpace=wrap;rounded=0;" vertex="1" parent="1">
          <mxGeometry x="270" y="320" width="60" height="40" as="geometry" />
        </mxCell>
        <mxCell id="P6FHyjP6E23nU8N7vGcj-52" value="column&lt;div&gt;padded&lt;/div&gt;" style="text;html=1;align=center;verticalAlign=middle;whiteSpace=wrap;rounded=0;" vertex="1" parent="1">
          <mxGeometry x="510" y="320" width="60" height="40" as="geometry" />
        </mxCell>
        <mxCell id="P6FHyjP6E23nU8N7vGcj-53" value="" style="endArrow=classic;startArrow=classic;html=1;rounded=0;" edge="1" parent="1">
          <mxGeometry width="100" height="100" relative="1" as="geometry">
            <mxPoint x="520" y="320" as="sourcePoint" />
            <mxPoint x="560" y="320" as="targetPoint" />
          </mxGeometry>
        </mxCell>
        <mxCell id="P6FHyjP6E23nU8N7vGcj-55" value="Banks" style="text;html=1;align=center;verticalAlign=middle;whiteSpace=wrap;rounded=0;" vertex="1" parent="1">
          <mxGeometry x="580" y="50" width="60" height="30" as="geometry" />
        </mxCell>
        <mxCell id="P6FHyjP6E23nU8N7vGcj-56" value="Mapping&lt;div&gt;to Banks&lt;/div&gt;" style="text;html=1;align=center;verticalAlign=middle;whiteSpace=wrap;rounded=0;" vertex="1" parent="1">
          <mxGeometry x="580" y="120" width="60" height="30" as="geometry" />
        </mxCell>
      </root>
    </mxGraphModel>
  </diagram>
</mxfile>
